<svg fill="none" height="15" viewBox="0 0 15 15" width="15" xmlns="http://www.w3.org/2000/svg"><path clip-rule="evenodd" d="m7.00268 0c-3.86888 0-7.00268 3.2137-7.00268 7.18122 0 3.17398 2.00752 5.86308 4.78882 6.81528.3482.0662.47716-.1542.47716-.3482 0-.1719-.0043-.6216-.0086-1.2211-1.94733.432-2.36002-.9611-2.36002-.9611-.3181-.8287-.77807-1.0536-.77807-1.0536-.63622-.4452.04729-.43638.04729-.43638.70069.05288 1.07469.74058 1.07469.74058.62332 1.0977 1.63782.7803 2.03761.5952.06448-.4629.24503-.7803.44277-.9611-1.55185-.1763-3.18538-.79347-3.18538-3.54429 0-.78469.27082-1.4239.72219-1.92645-.07308-.18516-.31381-.91253.06448-1.90001 0 0 .58893-.19397 1.92585.7362.55884-.1587 1.15636-.23805 1.75389-.24246.59323.00441 1.19506.08376 1.75389.24246 1.33693-.93017 1.92583-.7362 1.92583-.7362.3826.98748.1419 1.71926.0688 1.90001.4471.50255.7179 1.14176.7179 1.92645 0 2.75963-1.63784 3.36359-3.19829 3.54429.24933.2204.47717.6613.47717 1.3314 0 .961-.0086 1.7324-.0086 1.9705 0 .194.12466.4144.48146.3438 2.78126-.9522 4.78456-3.6413 4.78456-6.81087 0-3.97194-3.1338-7.18563-7.00272-7.18563z" fill="#fff" fill-rule="evenodd"/></svg>